<svg xmlns="http://www.w3.org/2000/svg" viewBox="74 188 375 179" fill="currentColor"><defs><mask id="altbalaji-mono" maskUnits="userSpaceOnUse" x="74" y="188" width="375" height="179"><g fill="#fff"><path d="M 226.5,193.5 C 238.167,193.5 249.833,193.5 261.5,193.5C 261.168,226.671 261.502,259.671 262.5,292.5C 275.833,292.5 289.167,292.5 302.5,292.5C 302.5,302.5 302.5,312.5 302.5,322.5C 277.167,322.5 251.833,322.5 226.5,322.5C 226.5,321.5 226.5,320.5 226.5,319.5C 226.5,316.5 226.5,313.5 226.5,310.5C 226.5,300.5 226.5,290.5 226.5,280.5C 226.5,274.5 226.5,268.5 226.5,262.5C 226.5,255.833 226.5,249.167 226.5,242.5C 226.5,236.5 226.5,230.5 226.5,224.5C 226.5,214.167 226.5,203.833 226.5,193.5 Z" fill="#fff"/><path d="M 331.5,192.5 C 365.833,192.5 400.167,192.5 434.5,192.5C 432.5,202.167 430.5,211.833 428.5,221.5C 403.736,222.158 379.069,222.824 354.5,223.5C 353.028,227.704 351.695,232.037 350.5,236.5C 343.578,236.188 336.744,236.521 330,237.5C 327.279,246.934 325.445,256.268 324.5,265.5C 329.5,269.5 334.5,273.5 339.5,277.5C 336.342,289.798 333.342,302.131 330.5,314.5C 329.379,316.954 328.546,319.621 328,322.5C 326.811,320.767 325.644,319.1 324.5,317.5C 318.586,306.003 312.919,294.337 307.5,282.5C 312.817,262.565 317.817,242.565 322.5,222.5C 311.167,222.5 299.833,222.5 288.5,222.5C 287.833,221.833 287.167,221.167 286.5,220.5C 283.664,214.822 280.331,209.489 276.5,204.5C 274.766,200.7 272.766,197.034 270.5,193.5C 291.007,193.83 311.34,193.497 331.5,192.5 Z" fill="#fff"/><path d="M 177.5,193.5 C 181.5,193.5 185.5,193.5 189.5,193.5C 193.167,193.5 196.833,193.5 200.5,193.5C 204.042,193.187 207.375,193.521 210.5,194.5C 210.5,237.167 210.5,279.833 210.5,322.5C 199.167,322.5 187.833,322.5 176.5,322.5C 176.5,316.167 176.5,309.833 176.5,303.5C 162.656,303.171 148.99,303.504 135.5,304.5C 133.367,306.091 131.701,308.091 130.5,310.5C 129.662,310.842 129.328,311.508 129.5,312.5C 126.365,315.808 123.365,319.308 120.5,323C 106.488,323.833 92.4881,323.666 78.5,322.5C 95.8576,299.481 113.191,276.481 130.5,253.5C 146.167,233.5 161.833,213.5 177.5,193.5 Z" fill="#fff"/><path d="M 445.5,239.5 C 444.232,241.905 443.565,244.572 443.5,247.5C 442.076,249.515 441.41,251.848 441.5,254.5C 441.5,254.833 441.5,255.167 441.5,255.5C 440.076,257.515 439.41,259.848 439.5,262.5C 438.596,263.209 438.263,264.209 438.5,265.5C 430.5,265.5 422.5,265.5 414.5,265.5C 405.167,265.5 395.833,265.5 386.5,265.5C 385.627,270.534 384.627,275.534 383.5,280.5C 382.566,281.568 382.232,282.901 382.5,284.5C 378.898,296.24 375.898,308.24 373.5,320.5C 370.742,327.86 368.742,335.527 367.5,343.5C 366.566,344.568 366.232,345.901 366.5,347.5C 365.232,349.905 364.565,352.572 364.5,355.5C 363.566,356.568 363.232,357.901 363.5,359.5C 362.839,360.718 362.172,362.051 361.5,363.5C 359.392,359.599 357.059,355.933 354.5,352.5C 351.341,344.849 347.675,337.516 343.5,330.5C 342.545,328.254 341.878,325.921 341.5,323.5C 342.768,321.095 343.435,318.428 343.5,315.5C 344.768,313.095 345.435,310.428 345.5,307.5C 346.434,306.432 346.768,305.099 346.5,303.5C 348.593,298.122 349.927,292.455 350.5,286.5C 352.102,282.761 353.102,278.761 353.5,274.5C 354.635,271.662 355.635,268.662 356.5,265.5C 352.217,264.508 347.884,264.174 343.5,264.5C 337.158,264.666 330.825,264.5 324.5,264C 326.96,255.365 329.294,246.698 331.5,238C 350.5,237.833 369.5,237.667 388.5,237.5C 407.845,237.5 426.845,238.167 445.5,239.5 Z" fill="#fff"/></g></mask></defs><rect x="74" y="188" width="375" height="179" mask="url(#altbalaji-mono)"/></svg>
