<svg xmlns="http://www.w3.org/2000/svg" xmlns:xlink="http://www.w3.org/1999/xlink" fill="currentColor" viewBox="200 325 200 200"><defs><mask id="promptfoo-mono" width="200" height="200" x="200" y="325" maskUnits="userSpaceOnUse"><g fill="#fff"><style>.promptfoo-st0,.promptfoo-st1,.promptfoo-st2{fill-rule:evenodd;clip-rule:evenodd}.promptfoo-st1,.promptfoo-st2{fill:#fff}</style><path d="m239.76 451.97 57.68 58.89 44.32-45.25 17.14 20.19.82.39c2.91 1.39 6.46.18 8.92-1.59 3-2.16 4.96-6.2 2.81-9.64l-.15-.23-14.86-18.08-1.73 1.26-1.92-2.28.63-.89a22.5 22.5 0 0 0 3.68-17.21l-.17-.88.78-.57q.58-.42 1.15-.87c3.97-3.07 7.52-6.66 10.95-10.3l2.63-2.79-12.29-14.28.42-.85a70 70 0 0 0 5.18-14.28l.06-.24c1-4.07 1.73-8.35 1.89-12.55.28-7.08.51-14.19.34-21.28l-.09-3.95-3.95-.19c-4.18-.2-8.51.1-12.66.59-7.88.93-15.96 2.91-23.04 6.55l-1.31.67-6.81-14.49-22.75-9.51-22.75 9.51-6.81 14.49-1.31-.67c-7.08-3.64-15.16-5.62-23.04-6.55a78 78 0 0 0-12.66-.59l-3.95.19-.09 3.95c-.17 7.09.07 14.19.34 21.28.16 4.19.89 8.48 1.89 12.55l.06.24a70 70 0 0 0 5.17 14.28l.42.85-12.29 14.28 2.63 2.79a97 97 0 0 0 10.95 10.3l.16.12.43.33z" class="promptfoo-st0"/><path d="m297.44 342.94 19.59 8.18 8.68 18.47h-28.27zm0 35.23 30.69.08 21 11.3c-17.23 2.09-30.37 3.73-51.69 3.82z" class="promptfoo-st1"/><path d="M277.11 410.95a3.96 3.96 0 1 1 0 7.91 3.96 3.96 0 0 1 0-7.91m20.33-13.05a472 472 0 0 1-45.9-3.06L228.15 422c10.4 11.04 15.78 14.7 31.47 20.35 14.23 5.12 31.41 11.3 37.82 11.53v-9.3h-5.45s-.76-.22-.95-1.78 1.02-1.74 1.02-1.74h3v-4.61s-4.29-2.23-5.27-5.2c-.49-1.5-.39-2.52-.03-3.22.91-1.78 3.18-1.92 4.9-1.92h2.77zm0 59.71v15.67l-22.67-21.83c-.01.01 13.29 5.42 22.67 6.16m-55.79-18.24s9.12 4.38 15.61 6.74c6.49 2.35 10.56 3.57 10.56 3.57l29.62 29.06v26.05l-53.75-54.88z" class="promptfoo-st2"/><path d="M317.76 410.95a3.96 3.96 0 1 0 0 7.91 3.96 3.96 0 0 0 0-7.91m-20.32-13.05a472 472 0 0 0 45.9-3.06L366.72 422c-4.34 4.61-7.81 7.93-11.52 10.65a22.27 22.27 0 0 0-41.11 17.07c-7.17 2.33-13.35 4.03-16.66 4.15v-9.3h5.45s.76-.22.95-1.78-1.02-1.74-1.02-1.74h-3v-4.61s4.29-2.23 5.27-5.2c.49-1.5.39-2.52.03-3.22-.91-1.78-3.18-1.92-4.9-1.92h-2.77zm0 59.71v15.67l19.32-18.6q-.55-.77-1.03-1.59c-4.71 1.67-12.3 4.05-18.29 4.52m21.66-.14-21.67 21.26v26.05l40.05-40.89a22.3 22.3 0 0 1-18.38-6.42" class="promptfoo-st1"/><path d="m297.44 342.94-19.6 8.18-8.68 18.47h28.28zm0 35.23-30.69.08-21 11.3c17.23 2.09 30.37 3.73 51.69 3.82z" class="promptfoo-st2"/><defs><path id="promptfoo-SVGID_1_" d="M346.03 441.82a11.13 11.13 0 0 1-20.14 6.51zm-11.14-11.18c4.77 0 8.84 3 10.43 7.22l-21.17 6.85q-.38-1.4-.39-2.93a11.13 11.13 0 0 1 11.13-11.14"/></defs><clipPath id="promptfoo-SVGID_2_"><use xlink:href="#promptfoo-SVGID_1_" style="overflow:visible"/></clipPath><linearGradient id="promptfoo-SVGID_3_" x1="337.03" x2="332.04" y1="446.66" y2="435.27" gradientUnits="userSpaceOnUse"><stop offset="0" style="stop-color:#fff"/><stop offset="1" style="stop-color:#fff"/></linearGradient><path d="M323.75 430.64h22.27v22.27h-22.27z" style="clip-path:url(#promptfoo-SVGID_2_);fill:url(#promptfoo-SVGID_3_)"/><path d="M314.09 449.72c-7.17 2.33-13.35 4.03-16.66 4.15-3.95-.14-12.01-2.55-20.94-5.58a13 13 0 0 1-2.78-6.87c-.76-8.31 5.39-17.33 12.16-22.37 3.91-2.91 7.73-4.22 11.56-4.31 3.84.09 7.65 1.4 11.56 4.31a34 34 0 0 1 8.34 9.03 22.2 22.2 0 0 0-3.24 21.64m-42.94-46.86c4.04-1.01 8.4-1.47 12.06.83 2.52 1.58 3.78 4.34 4.73 7.05l-2.89-.4c.01-.01-5.8-4.9-13.9-7.48m52.57 0c-4.04-1.01-8.4-1.47-12.06.83-2.52 1.58-3.78 4.34-4.73 7.05l2.89-.4c-.01-.01 5.8-4.9 13.9-7.48m32.54 28.99-1.06.8a22.3 22.3 0 0 0-19.68-13.12c-3.14-8.17-9.03-13.33-9.03-13.33s14.22 2.45 21.95 10.79c4.69 5.06 6.85 10.99 7.82 14.86m-117.65 0c5.39 4.17 11.07 6.89 20.55 10.33-1.08-2.77-2.63-8.46-1.45-16.48 1.72-11.65 10.67-19.49 10.67-19.49s-14.22 2.45-21.95 10.79c-4.69 5.05-6.85 10.98-7.82 14.85m90.13-65.61 4.8 9.69c4.26-2.45 12.24-5.72 20.42-6.19-.31 5.7-1 11.13-3.28 16.6l8.07 4.41c-2.89 1.68-7.5 2.64-10.54 3.47l8.3 11.4s6.41-12.34 6.94-25.84.34-21.01.34-21.01-20.04-.99-35.05 7.47m-62.61 0-4.8 9.69c-4.26-2.45-12.24-5.72-20.42-6.19.31 5.7 1 11.13 3.28 16.6l-8.07 4.41c2.89 1.68 7.5 2.64 10.54 3.47l-8.3 11.4s-6.41-12.34-6.94-25.84-.34-21.01-.34-21.01 20.04-.99 35.05 7.47m73.02 65.25a11.2 11.2 0 0 1 6.17 6.38l-7.93 2.57a21 21 0 0 0 1.27-4.46c.31-1.92.44-3.45.49-4.49m-4.26-4.01a14.3 14.3 0 1 1 0 28.6 14.3 14.3 0 0 1 0-28.6m0-4.06a18.36 18.36 0 1 1 0 36.72 18.36 18.36 0 0 1 0-36.72m11.65 37.33 2.7 2.95s.68-1.08 1.24-1.48 1.77-.64 1.77-.64l-2.62-3.11c-.01-.01-1.45 1.56-3.09 2.28m2.35 6.7 12.66 14.91s1.76.84 4.61-1.2 1.68-3.93 1.68-3.93l-12.14-14.76zm-21.28-27.12s1.02-2.31 2.81-3.92c1.18-1.06 2.18-1.33 2.85-1.71.71-.4 1.17-1.48.84-2.21-.32-.72-1.25-1.08-2.51-.64a9.4 9.4 0 0 0-5.01 3.68c-1.5 2.16-1.47 4.55-1.47 4.55zm-30.17-14.23h2.77c1.72 0 4 .14 4.9 1.92.36.71.46 1.72-.03 3.22-.97 2.97-5.27 5.2-5.27 5.2v4.61h3s1.21.19 1.02 1.74c-.19 1.56-.95 1.78-.95 1.78h-10.9s-.76-.22-.95-1.78 1.02-1.74 1.02-1.74h3v-4.61s-4.29-2.23-5.27-5.2c-.49-1.5-.39-2.52-.03-3.22.91-1.78 3.18-1.92 4.9-1.92zm29.01 15.11a1.84 1.84 0 1 1 0 3.68 1.84 1.84 0 0 1 0-3.68" style="fill-rule:evenodd;clip-rule:evenodd;fill:#000"/><path d="M277.11 418.87a3.96 3.96 0 1 0 0-7.91 3.96 3.96 0 0 0 0 7.91m22.7 17.57s4.29-2.23 5.27-5.2c.49-1.5.39-2.52.03-3.22-.91-1.78-3.18-1.92-4.9-1.92h-5.54c-1.72 0-4 .14-4.9 1.92-.36.71-.46 1.72.03 3.22.97 2.97 5.27 5.2 5.27 5.2v4.61h-3s-1.21.19-1.02 1.74c.19 1.56.95 1.78.95 1.78h10.9s.76-.22.95-1.78-1.02-1.74-1.02-1.74h-3v-4.61zm13.99-21.53a3.96 3.96 0 1 0 7.91 0 3.96 3.96 0 0 0-7.91 0" class="promptfoo-st0"/><path d="M277.11 418.87a3.96 3.96 0 1 0 0-7.91 3.96 3.96 0 0 0 0 7.91zm22.7 17.57s4.29-2.23 5.27-5.2c.49-1.5.39-2.52.03-3.22-.91-1.78-3.18-1.92-4.9-1.92h-5.54c-1.72 0-4 .14-4.9 1.92-.36.71-.46 1.72.03 3.22.97 2.97 5.27 5.2 5.27 5.2v4.61h-3s-1.21.19-1.02 1.74c.19 1.56.95 1.78.95 1.78h10.9s.76-.22.95-1.78-1.02-1.74-1.02-1.74h-3v-4.61zm13.99-21.53a3.96 3.96 0 1 0 7.91 0 3.96 3.96 0 0 0-7.91 0z" style="fill:none;stroke:#fff;stroke-width:.216;stroke-miterlimit:2.6131"/></g></mask></defs><path d="M200 325h200v200H200z" mask="url(#promptfoo-mono)"/></svg>